<?xml version="1.0" encoding="UTF-8" standalone="no"?>
<!DOCTYPE svg PUBLIC "-//W3C//DTD SVG 1.1//EN" "http://www.w3.org/Graphics/SVG/1.1/DTD/svg11.dtd">
<svg xmlns="http://www.w3.org/2000/svg" version="1.1" viewBox="0 0 1024 1024" width="1024.0pt" height="1024.0pt">
<path d="M 562.67 113.50 C 562.37 118.26 561.68 122.96 561.09 127.69 C 558.75 127.34 556.80 127.22 555.78 124.79 C 554.93 121.71 555.16 117.71 557.03 115.01 C 558.54 112.92 560.45 113.69 562.67 113.50 Z" fill="#fff3c2" />
<path d="M 560.07 199.94 C 568.38 204.53 575.87 210.73 582.36 217.64 C 592.88 229.02 600.96 241.34 610.09 253.94 C 615.52 261.72 621.53 269.05 628.36 275.65 C 641.20 287.88 657.45 294.27 670.44 306.56 C 679.86 315.45 688.54 327.05 691.60 339.82 C 702.18 340.85 712.52 343.23 722.20 347.67 C 753.09 361.21 774.19 392.81 777.68 425.99 C 777.94 433.20 778.22 440.97 776.55 448.00 C 774.62 456.80 770.79 465.16 765.32 472.33 C 756.56 484.21 743.23 492.91 729.56 498.10 C 732.07 503.09 734.93 507.84 737.08 513.01 C 741.80 524.00 744.59 536.07 742.21 547.99 C 740.78 555.98 736.86 563.40 730.63 568.67 C 727.52 571.35 723.72 572.77 719.98 574.36 C 722.03 577.62 723.97 580.85 725.20 584.53 C 726.86 589.11 726.93 594.22 726.50 599.03 C 725.47 607.60 720.16 615.39 712.70 619.69 C 706.08 623.87 698.17 624.95 690.49 624.39 C 692.52 632.69 691.63 638.91 687.44 646.28 C 692.91 652.20 696.93 659.18 698.38 667.18 C 700.23 676.02 698.78 684.94 695.41 693.22 C 693.50 697.97 690.59 701.66 687.80 705.89 C 700.88 712.44 709.77 725.63 711.80 740.02 C 713.31 749.62 710.83 759.44 705.54 767.52 C 700.05 775.72 691.94 781.89 682.76 785.42 C 677.86 787.29 672.88 787.58 667.72 788.13 C 664.98 803.16 655.69 816.74 642.56 824.57 C 635.11 829.17 626.69 831.52 618.03 832.31 C 604.55 832.98 591.02 828.42 580.96 819.36 C 576.61 824.54 572.71 829.46 566.46 832.48 C 560.67 835.66 553.24 835.75 547.01 833.91 C 541.34 832.29 537.47 828.61 532.90 825.19 C 528.66 826.96 524.93 829.37 520.26 830.10 C 508.75 831.89 496.50 828.15 487.88 820.31 C 483.38 826.76 476.70 832.18 469.03 834.25 C 463.02 835.70 456.04 835.46 450.53 832.42 C 443.88 829.05 439.25 822.94 434.73 817.21 C 426.02 824.10 416.06 828.95 405.01 830.50 C 399.77 830.95 394.21 830.99 388.98 830.44 C 379.13 828.66 369.89 823.18 362.99 816.01 C 356.02 808.57 350.32 798.70 349.14 788.46 C 345.14 787.47 341.02 787.61 337.05 786.51 C 320.25 781.73 306.64 767.64 304.42 750.03 C 302.40 732.24 312.80 713.77 328.79 705.90 C 321.77 697.40 317.34 687.13 317.32 676.00 C 317.00 665.69 320.86 655.56 327.60 647.81 C 320.20 643.68 315.45 637.26 314.20 628.81 C 313.07 623.01 314.85 618.12 315.99 612.54 C 306.51 609.15 298.65 601.36 295.05 591.98 C 292.62 586.18 292.24 580.07 292.78 573.87 C 288.30 573.59 283.95 572.99 279.85 571.03 C 270.98 567.12 264.68 558.36 262.71 548.98 C 260.06 538.17 262.37 526.65 266.54 516.54 C 270.08 508.02 275.52 501.00 280.23 493.20 C 270.66 487.87 262.01 481.42 255.43 472.55 C 246.68 461.21 242.53 447.26 242.60 433.00 C 243.02 401.68 260.16 371.41 286.23 354.23 C 300.46 345.04 317.02 340.06 333.95 339.68 C 332.65 329.67 332.65 320.08 338.27 311.30 C 344.96 300.66 355.94 295.35 366.92 290.21 C 380.80 284.32 393.40 275.71 404.05 265.06 C 424.10 245.56 438.56 223.59 461.44 206.42 C 469.36 200.89 477.62 196.04 486.86 193.08 C 510.99 185.17 537.76 188.03 560.07 199.94 Z" fill="#513d30" />
<path d="M 515.00 195.84 C 527.46 195.52 540.06 198.52 551.39 203.59 C 561.37 208.11 570.30 215.29 577.76 223.24 C 593.39 240.13 604.75 261.91 620.70 278.32 C 636.76 294.66 656.86 301.36 671.70 318.30 C 676.87 324.50 681.99 331.79 684.10 339.67 C 679.35 340.02 674.69 340.24 669.99 341.05 C 658.78 342.80 647.95 347.35 638.33 353.28 C 635.79 354.94 633.69 353.56 631.10 352.91 C 621.63 349.72 612.01 347.17 602.38 344.58 C 583.48 339.38 564.32 335.97 544.92 333.30 C 531.04 331.66 516.99 330.12 503.00 330.24 C 492.36 330.20 481.58 329.91 470.99 331.07 C 443.12 333.57 414.39 339.38 388.70 350.73 C 386.66 351.52 384.37 352.79 382.16 352.79 C 380.55 352.24 379.01 351.34 377.51 350.53 C 368.27 345.54 358.47 341.90 347.98 340.74 C 346.02 340.36 343.33 340.39 341.71 339.25 C 338.90 329.95 340.51 318.56 347.30 311.30 C 354.09 304.45 362.05 300.64 370.64 296.63 C 379.20 292.08 387.62 288.31 395.23 282.22 C 422.54 261.54 439.48 231.27 466.67 211.68 C 480.50 201.38 497.71 195.52 515.00 195.84 Z" fill="#353535" />
<path d="M 554.08 234.94 C 556.38 237.58 556.19 240.59 557.26 243.75 C 559.65 244.82 562.63 244.31 565.03 245.98 C 568.80 248.27 570.78 253.42 568.31 257.36 C 565.43 261.80 559.83 262.66 555.13 260.81 C 552.95 260.28 550.00 258.14 548.07 260.07 C 544.52 262.83 541.12 265.76 537.51 268.44 C 533.22 272.03 528.79 275.39 524.33 278.77 C 518.19 283.67 511.59 287.98 505.34 292.74 C 505.31 296.51 505.83 300.26 505.73 304.02 C 505.77 308.61 501.74 313.33 497.02 313.44 C 492.75 313.84 489.39 311.06 487.54 307.45 C 486.07 304.92 486.80 301.52 485.89 299.11 C 482.10 297.55 478.55 297.76 476.14 293.84 C 473.33 289.43 475.14 284.02 479.85 281.95 C 484.87 279.24 489.39 281.10 494.50 280.43 C 500.14 277.56 505.37 273.70 510.56 270.10 C 515.04 266.95 519.44 263.71 523.78 260.38 C 527.31 257.70 530.83 255.02 534.36 252.34 C 535.68 251.25 537.32 250.08 538.15 248.54 C 537.84 243.82 536.69 239.81 539.39 235.42 C 542.55 230.30 550.50 230.24 554.08 234.94 Z" fill="#e7c8a0" />
<path d="M 505.41 237.56 C 508.45 241.82 507.37 245.94 508.35 250.71 C 512.93 254.58 518.63 257.32 523.78 260.38 C 519.44 263.71 515.04 266.95 510.56 270.10 C 506.26 267.67 502.38 264.21 497.89 262.21 C 493.77 262.90 490.61 266.07 485.98 265.67 C 480.51 265.66 475.91 260.49 477.87 255.00 C 479.72 249.99 483.81 248.67 488.61 247.67 C 489.02 243.94 488.85 240.46 491.43 237.44 C 494.95 233.25 502.15 232.80 505.41 237.56 Z" fill="#cb9a44" />
<path d="M 537.51 268.44 C 542.87 271.42 548.39 274.83 554.18 276.88 C 556.26 277.72 558.84 276.58 560.99 276.27 C 564.37 275.46 568.16 276.27 571.26 277.74 C 575.42 279.79 576.67 285.38 574.22 289.21 C 572.26 292.53 568.76 293.34 565.41 294.66 C 565.46 299.69 565.73 304.04 561.67 307.68 C 557.52 312.10 550.34 310.51 547.55 305.44 C 544.49 300.46 546.45 295.84 545.38 290.72 C 542.84 288.81 539.76 287.59 537.03 285.95 C 532.84 283.48 528.65 281.02 524.33 278.77 C 528.79 275.39 533.22 272.03 537.51 268.44 Z" fill="#cb9a44" />
<path d="M 541.98 340.78 C 564.10 343.14 585.85 347.73 607.29 353.62 C 614.69 355.69 621.94 357.37 629.13 360.07 C 625.51 364.06 621.84 367.42 618.69 371.67 C 616.68 374.36 614.79 377.13 612.84 379.86 C 601.73 376.13 590.68 372.36 579.26 369.67 C 563.06 365.97 546.51 362.40 529.98 360.70 C 517.35 359.18 504.74 358.04 492.00 358.75 C 471.47 359.30 451.49 363.61 432.06 370.07 C 423.74 372.99 415.48 376.05 407.20 379.04 C 402.06 371.35 396.54 364.78 389.59 358.67 C 394.06 355.95 398.91 354.56 403.75 352.70 C 411.28 349.89 419.16 347.88 426.93 345.82 C 436.32 343.31 445.96 342.14 455.70 340.58 C 484.23 336.76 513.44 337.35 541.98 340.78 Z" fill="#716f3d" />
<path d="M 370.19 354.68 C 394.63 366.47 411.04 392.21 412.16 419.25 C 401.90 419.22 392.26 422.65 383.56 427.91 C 378.71 416.77 370.82 407.03 360.60 400.38 C 350.47 393.47 338.23 390.03 325.99 390.43 C 316.85 391.16 307.47 394.39 300.42 400.39 C 292.69 406.81 287.41 415.85 286.84 426.00 C 286.33 436.08 290.54 447.06 298.62 453.35 C 304.82 458.04 313.32 460.35 320.97 458.61 C 329.41 457.11 337.42 451.47 340.30 443.19 C 344.50 431.18 338.93 417.14 326.93 412.30 C 325.41 413.44 323.06 413.68 323.26 416.01 C 322.97 418.62 324.85 419.00 326.56 420.32 C 334.73 425.04 337.05 437.72 331.04 445.03 C 324.66 452.80 311.83 454.02 303.77 448.23 C 296.32 442.77 293.10 432.97 294.43 424.00 C 295.69 414.84 302.02 407.28 309.77 402.64 C 314.99 399.44 320.95 398.21 327.00 397.83 C 338.22 397.65 349.33 400.98 358.41 407.62 C 370.00 415.98 378.10 428.87 380.44 442.98 C 381.20 450.49 381.14 458.09 378.34 465.20 C 374.41 476.16 366.60 485.55 356.45 491.28 C 347.43 496.13 336.11 497.39 326.01 497.43 C 307.21 496.90 287.43 491.23 272.47 479.52 C 260.65 470.29 252.26 457.06 250.56 442.00 C 249.35 434.29 250.09 426.66 251.30 419.01 C 257.16 386.90 281.74 357.98 313.81 349.90 C 332.22 345.28 352.96 346.34 370.19 354.68 Z" fill="#cfb29f" />
<path d="M 712.50 351.57 C 740.21 360.92 761.27 385.83 768.07 413.99 C 771.64 426.84 771.88 440.55 767.44 453.22 C 763.74 464.29 755.84 473.67 746.69 480.72 C 738.57 486.39 729.46 491.08 719.82 493.50 C 704.85 497.85 689.18 498.83 673.97 495.04 C 653.07 490.08 638.20 468.16 639.75 446.99 C 641.17 422.93 661.55 401.18 685.52 398.34 C 692.12 397.29 698.72 397.86 705.06 399.90 C 714.03 403.11 721.55 410.05 724.99 418.99 C 728.96 429.34 725.49 441.93 716.48 448.48 C 708.23 454.23 694.75 452.57 688.90 444.08 C 684.89 438.07 685.72 428.85 690.33 423.36 C 692.28 420.87 696.12 419.86 697.53 417.08 C 698.00 414.23 695.88 413.79 694.11 412.23 C 689.15 414.29 684.96 417.44 682.31 422.19 C 677.67 430.61 677.83 442.31 684.12 449.88 C 691.17 458.08 703.66 461.39 713.83 457.64 C 722.20 455.06 728.23 448.43 731.43 440.45 C 734.02 434.54 734.14 427.48 733.25 421.19 C 731.60 413.67 727.17 406.66 721.52 401.48 C 712.61 393.42 699.90 389.45 687.99 390.59 C 665.50 392.20 645.14 407.98 636.68 428.67 C 634.12 425.48 630.68 424.51 627.07 422.93 C 621.53 420.60 615.69 419.65 609.74 419.14 C 609.22 419.76 608.70 420.38 608.17 421.00 C 608.30 420.00 608.41 419.01 608.50 418.01 C 609.77 388.64 630.51 360.79 658.41 351.39 C 675.75 345.59 695.17 345.89 712.50 351.57 Z" fill="#cfb29f" />
<path d="M 506.00 365.79 C 541.05 367.93 576.49 374.43 609.53 386.43 C 604.85 395.64 602.01 405.67 601.40 416.00 C 601.35 417.67 601.30 419.40 601.74 421.02 C 603.28 423.31 606.68 423.43 608.17 421.00 C 608.70 420.38 609.22 419.76 609.74 419.14 C 615.69 419.65 621.53 420.60 627.07 422.93 C 630.68 424.51 634.12 425.48 636.68 428.67 C 627.94 448.81 632.77 473.21 648.46 488.53 C 657.31 498.00 669.08 502.36 681.67 504.16 C 681.20 513.76 681.27 523.21 681.84 532.80 C 667.38 530.19 653.12 525.26 639.43 519.98 C 641.64 516.83 643.91 513.79 645.40 510.22 C 647.78 504.76 647.34 498.06 643.94 493.12 C 640.64 488.11 635.16 484.16 630.34 480.68 C 617.99 472.14 605.79 464.22 591.59 459.07 C 585.45 457.00 577.91 458.61 573.80 463.81 C 570.88 467.79 568.93 472.46 566.30 476.65 C 550.82 465.74 536.34 453.60 523.92 439.24 C 527.89 434.22 527.05 428.95 528.02 423.00 C 528.44 418.48 529.58 413.87 529.46 409.33 C 529.24 407.04 527.38 405.71 525.12 406.18 C 523.09 406.59 522.73 408.35 522.34 410.09 C 521.31 416.36 520.95 422.74 519.97 429.02 C 519.77 430.44 519.06 431.57 518.35 432.77 C 502.03 412.77 488.71 390.55 478.26 366.97 C 487.41 365.95 496.80 365.49 506.00 365.79 Z" fill="#f7f7f7" />
<path d="M 470.86 368.13 C 488.15 408.08 514.08 445.45 548.53 472.46 C 553.13 476.22 557.97 479.64 562.69 483.24 C 558.76 490.10 555.20 497.20 550.96 503.88 C 539.26 496.27 528.82 486.86 518.65 477.36 C 493.62 453.43 472.30 425.35 456.48 394.54 C 452.80 387.68 449.74 380.54 446.31 373.56 C 454.02 370.58 462.62 368.82 470.86 368.13 Z" fill="#939451" />
<path d="M 510.66 376.09 C 510.51 379.89 509.22 383.68 508.50 387.41 C 507.75 390.40 507.36 394.02 505.65 396.63 C 503.29 398.44 501.03 397.58 499.86 394.99 C 499.69 391.34 500.99 387.48 501.71 383.91 C 502.49 380.77 502.88 377.25 504.33 374.34 C 505.92 371.47 510.61 373.06 510.66 376.09 Z" fill="#ede1e1" />
<path d="M 546.56 375.38 C 547.05 379.50 546.13 383.88 545.85 388.00 C 545.40 392.20 545.39 396.55 544.50 400.69 C 544.16 402.49 542.72 403.47 541.00 403.79 C 539.18 403.35 537.70 402.01 537.72 400.03 C 537.57 394.70 538.59 389.33 538.88 384.00 C 539.23 380.93 539.06 377.23 540.46 374.42 C 542.40 372.41 545.33 372.87 546.56 375.38 Z" fill="#ede1e1" />
<path d="M 439.25 375.22 C 450.61 401.63 464.99 426.55 483.01 448.99 C 501.34 472.20 522.87 493.39 547.21 510.26 C 546.51 513.62 544.85 516.40 545.25 520.01 C 545.17 525.81 549.79 530.55 554.06 533.87 C 565.29 542.05 576.60 550.14 588.20 557.79 C 592.33 560.45 597.08 562.22 602.05 561.20 C 608.16 560.19 612.21 555.90 616.02 551.40 C 622.11 554.43 628.21 557.33 634.75 559.29 C 647.82 563.19 660.51 567.04 673.99 569.51 C 686.12 571.89 698.57 572.91 710.61 575.63 C 717.43 580.81 720.85 591.08 719.15 599.43 C 716.66 611.17 703.99 618.81 692.41 617.07 C 688.39 616.32 685.09 614.61 680.89 615.59 C 680.45 616.77 680.00 617.94 679.54 619.12 C 682.58 624.20 685.19 628.80 684.00 635.00 C 682.60 644.82 673.42 651.20 664.02 651.98 C 655.38 652.34 646.66 649.52 640.02 643.94 C 638.28 642.39 635.19 641.39 633.67 643.74 C 632.45 645.87 633.03 647.65 634.83 649.16 C 645.18 657.74 660.08 662.45 673.03 657.21 C 676.66 656.14 679.36 653.59 682.73 652.12 C 685.07 654.57 686.93 657.51 688.48 660.51 C 694.07 671.54 692.41 685.63 685.89 695.90 C 683.89 699.20 680.93 701.66 678.72 704.75 C 677.45 707.49 679.06 710.26 681.79 711.20 C 697.62 717.37 707.70 735.88 704.19 752.49 C 700.65 768.26 685.04 780.33 669.00 780.44 C 666.15 780.56 663.73 780.36 661.73 782.75 C 660.40 785.14 660.36 788.23 659.59 790.83 C 656.30 802.79 648.07 813.22 637.21 819.22 C 627.83 824.14 617.04 825.91 606.58 824.15 C 598.67 822.56 591.22 818.84 585.26 813.39 C 591.73 804.74 596.96 795.39 602.00 785.86 C 612.35 782.36 620.68 774.78 624.63 764.52 C 626.48 759.58 628.02 753.39 626.73 748.17 C 625.40 744.79 623.16 745.78 620.36 746.48 C 620.07 748.65 619.87 750.82 619.75 753.00 C 619.50 761.80 614.61 770.38 607.36 775.32 C 597.79 782.05 583.54 780.82 574.79 773.22 C 572.41 771.25 570.71 768.71 568.51 766.58 C 566.81 764.86 563.67 765.40 562.33 767.34 C 560.02 770.78 558.60 774.56 555.59 777.57 C 547.86 786.12 536.50 790.73 524.99 788.51 C 519.34 788.10 515.20 784.08 509.63 784.47 C 509.11 786.45 507.46 788.81 509.48 790.47 C 513.04 793.00 517.86 794.24 522.04 795.33 C 523.02 803.64 524.46 811.70 528.56 819.12 C 523.41 821.87 518.13 823.79 512.19 823.16 C 504.61 822.27 496.57 819.52 491.59 813.46 C 491.84 811.81 492.45 810.19 492.92 808.59 C 494.91 802.33 495.46 795.37 495.79 788.84 C 500.82 784.95 506.45 779.90 508.96 773.94 C 509.90 770.63 505.86 768.33 503.31 770.31 C 501.05 772.75 499.52 775.76 497.10 778.09 C 488.08 787.31 473.47 791.63 461.14 787.12 C 452.71 784.59 446.35 778.63 441.42 771.54 C 439.72 768.99 436.58 767.83 434.00 769.90 C 430.52 773.00 427.83 776.18 423.06 777.35 C 418.18 778.31 412.87 778.19 408.56 775.43 C 405.72 773.70 403.40 771.09 401.76 768.22 C 400.17 765.36 400.02 762.10 398.84 759.21 C 397.44 756.90 394.59 757.33 392.86 759.01 C 392.02 761.00 392.39 763.01 392.78 765.04 C 394.65 773.24 400.57 780.49 408.44 783.57 C 410.36 784.35 412.50 784.66 414.34 785.58 C 416.30 788.38 417.64 791.60 419.43 794.52 C 422.63 800.44 426.79 805.74 430.09 811.58 C 420.30 819.14 408.48 823.88 396.01 823.67 C 384.31 823.41 373.76 817.52 366.33 808.66 C 360.01 801.32 356.55 792.37 355.23 782.84 C 351.19 779.35 347.10 780.96 342.29 780.02 C 329.05 777.82 317.00 767.93 312.97 755.02 C 308.33 741.96 314.44 726.36 324.46 717.45 C 328.16 713.85 332.75 712.45 337.02 709.86 C 338.10 708.36 338.76 706.10 337.54 704.49 C 335.51 701.83 332.94 699.68 331.08 696.85 C 325.25 688.15 322.85 676.66 325.72 666.49 C 327.34 660.23 330.73 654.90 335.22 650.31 C 339.22 650.48 343.16 650.46 347.05 649.40 C 350.76 648.52 353.55 646.50 356.67 644.45 C 356.62 642.83 356.56 641.22 356.49 639.60 C 354.05 638.87 353.01 638.08 350.72 639.78 C 343.61 644.55 333.79 644.40 327.16 638.84 C 321.39 633.67 319.92 625.37 322.29 618.17 C 323.17 615.37 324.34 612.84 323.14 609.89 C 321.97 606.90 318.87 606.10 316.28 604.69 C 304.64 599.35 297.12 585.11 300.71 572.56 C 303.31 570.76 306.15 569.72 308.47 567.45 C 314.54 561.50 317.60 553.99 320.00 545.99 C 323.80 532.52 326.05 518.65 326.11 504.64 C 339.22 505.16 352.39 502.68 363.56 495.57 C 376.58 486.78 385.77 472.63 387.86 456.99 C 389.45 447.32 387.33 436.88 383.56 427.91 C 392.26 422.65 401.90 419.22 412.16 419.25 C 412.54 420.42 412.63 422.35 414.15 422.57 C 416.75 423.32 419.46 421.92 419.39 419.03 C 419.02 407.39 415.85 396.34 410.89 385.86 C 420.17 381.86 429.71 378.57 439.25 375.22 Z" fill="#f7f7f7" />
<path d="M 525.12 406.18 C 527.38 405.71 529.24 407.04 529.46 409.33 C 529.58 413.87 528.44 418.48 528.02 423.00 C 527.05 428.95 527.89 434.22 523.92 439.24 C 522.01 437.13 520.13 434.99 518.35 432.77 C 519.06 431.57 519.77 430.44 519.97 429.02 C 520.95 422.74 521.31 416.36 522.34 410.09 C 522.73 408.35 523.09 406.59 525.12 406.18 Z" fill="#ede1e1" />
<path d="M 591.41 466.56 C 605.88 472.42 618.50 480.77 631.00 490.00 C 635.51 493.54 640.63 498.30 639.57 504.63 C 638.73 508.57 635.88 512.32 633.57 515.56 C 627.04 524.37 620.50 533.18 613.97 541.99 C 611.23 545.65 608.27 549.83 604.54 552.53 C 601.94 554.45 598.53 554.62 595.58 553.40 C 592.28 552.00 589.23 549.74 586.24 547.76 C 577.10 541.66 568.15 535.25 559.28 528.75 C 556.42 526.61 552.88 523.63 552.37 519.88 C 552.31 516.51 554.51 512.95 556.00 510.01 C 562.22 498.89 568.47 487.79 574.62 476.63 C 576.49 473.41 578.11 469.41 580.88 466.89 C 584.12 464.38 587.89 465.24 591.41 466.56 Z" fill="#353535" />
<path d="M 287.17 496.82 C 290.87 497.76 294.35 499.42 298.04 500.43 C 304.84 502.56 311.76 503.45 318.77 504.51 C 318.77 518.88 316.40 533.29 312.02 546.97 C 309.83 553.78 306.04 561.12 299.58 564.73 C 290.69 569.34 279.01 564.10 273.69 556.35 C 267.16 546.42 267.98 533.58 271.90 522.84 C 275.57 513.48 281.20 504.85 287.17 496.82 Z" fill="#f7f7f7" />
<path d="M 722.28 500.51 C 729.20 512.21 736.30 526.05 735.71 540.00 C 735.57 548.52 732.51 558.10 725.39 563.34 C 718.34 568.71 708.03 570.19 700.78 564.31 C 694.97 559.64 692.59 550.51 691.20 543.50 C 688.79 530.84 687.49 517.40 689.28 504.59 C 700.44 505.11 711.55 503.57 722.28 500.51 Z" fill="#f7f7f7" />
<path d="M 410.60 510.98 C 413.58 510.13 416.91 509.38 420.02 509.68 C 423.12 510.05 425.96 511.74 427.40 514.56 C 429.48 518.07 427.12 522.92 424.19 525.20 C 418.30 529.88 409.66 531.82 402.50 533.74 C 398.35 534.63 393.81 535.92 390.29 532.73 C 387.20 530.24 388.17 526.08 390.22 523.26 C 394.53 516.82 403.53 513.40 410.60 510.98 Z" fill="#513d30" />
<path d="M 513.03 512.41 C 518.57 512.78 523.53 515.79 528.29 518.37 C 524.72 523.40 522.04 529.37 515.84 531.58 C 510.94 533.11 504.57 532.98 500.41 529.60 C 496.40 526.70 493.89 521.37 491.02 517.36 C 494.01 516.33 496.72 514.69 499.74 513.68 C 503.90 512.23 508.68 512.14 513.03 512.41 Z" fill="#fac4af" />
<path d="M 491.02 517.36 C 493.89 521.37 496.40 526.70 500.41 529.60 C 504.57 532.98 510.94 533.11 515.84 531.58 C 522.04 529.37 524.72 523.40 528.29 518.37 C 530.05 518.74 531.82 518.51 532.97 520.12 C 534.26 521.66 533.28 523.91 532.38 525.41 C 529.86 529.51 526.72 534.04 522.57 536.60 C 519.61 538.55 516.01 539.11 512.61 539.85 C 512.29 546.27 512.62 552.72 512.24 559.13 C 511.15 562.29 506.05 562.12 505.47 558.86 C 504.90 552.57 505.49 546.14 505.39 539.81 C 502.19 538.67 499.16 537.68 496.36 535.70 C 492.30 532.98 489.33 528.27 486.85 524.14 C 486.16 522.76 484.98 521.12 486.11 519.64 C 487.24 517.61 489.03 517.84 491.02 517.36 Z" fill="#513d30" />
<path d="M 634.86 526.22 C 647.75 530.93 660.39 535.45 673.81 538.61 C 676.82 539.36 680.30 539.52 683.09 540.85 C 684.25 544.54 684.63 548.44 685.75 552.15 C 686.97 556.67 689.05 560.70 691.16 564.84 C 685.02 564.35 678.98 563.36 672.98 561.96 C 662.74 559.59 652.78 557.63 642.85 554.22 C 635.07 551.51 627.55 549.65 620.53 545.29 C 625.28 538.93 629.84 532.37 634.86 526.22 Z" fill="#939451" />
<path d="M 358.25 530.32 C 365.94 528.12 374.98 533.20 377.04 540.97 C 379.55 548.73 374.98 557.85 367.12 560.20 C 359.21 563.03 350.04 558.71 347.33 550.73 C 344.24 541.99 349.29 532.58 358.25 530.32 Z" fill="#fac4af" />
<path d="M 566.21 775.29 C 573.64 782.50 582.52 786.74 592.97 786.98 C 590.57 791.84 587.91 796.54 584.98 801.10 C 571.89 797.86 559.34 798.38 546.00 798.63 C 540.64 798.76 535.33 799.42 530.06 800.33 C 529.87 799.05 529.69 797.78 529.52 796.51 C 544.54 796.50 558.79 788.39 566.21 775.29 Z" fill="#ede1e1" />
<path d="M 436.78 777.84 C 443.98 787.93 455.68 794.82 468.00 796.16 C 474.95 796.95 481.56 795.47 488.04 793.06 C 487.85 796.15 487.61 799.23 487.08 802.29 C 476.62 799.07 466.02 797.49 455.11 799.38 C 448.27 800.70 441.62 802.66 435.58 806.23 C 430.85 799.50 426.32 792.48 422.70 785.08 C 428.24 783.81 432.38 781.30 436.78 777.84 Z" fill="#ede1e1" />
<path d="M 455.11 799.38 C 466.02 797.49 476.62 799.07 487.08 802.29 C 485.71 808.80 483.41 814.89 478.90 819.91 C 475.29 823.94 470.15 826.63 464.89 827.71 C 458.60 828.83 452.61 826.17 448.20 821.79 C 443.51 817.06 439.52 811.60 435.58 806.23 C 441.62 802.66 448.27 800.70 455.11 799.38 Z" fill="#cfb29f" />
<path d="M 546.00 798.63 C 559.34 798.38 571.89 797.86 584.98 801.10 C 580.98 807.26 576.59 813.25 571.86 818.87 C 568.14 823.23 563.70 826.70 557.94 827.76 C 552.40 828.71 546.34 826.32 541.89 823.13 C 534.54 817.47 531.42 809.24 530.06 800.33 C 535.33 799.42 540.64 798.76 546.00 798.63 Z" fill="#cfb29f" />
</svg>