<?xml version="1.0" encoding="UTF-8" standalone="no"?>
<!DOCTYPE svg PUBLIC "-//W3C//DTD SVG 1.1//EN" "http://www.w3.org/Graphics/SVG/1.1/DTD/svg11.dtd">
<svg xmlns="http://www.w3.org/2000/svg" version="1.1" viewBox="0 0 376 342" width="376.0pt" height="342.0pt">
<path d="M 220.93 24.15 C 249.50 30.52 275.95 45.67 295.71 67.30 C 315.08 88.13 327.92 114.81 332.29 142.91 C 335.39 162.64 334.43 182.95 329.25 202.25 C 321.08 233.75 301.75 262.25 275.56 281.56 C 253.70 297.87 227.20 307.64 200.02 309.67 C 180.13 311.04 160.01 308.48 141.21 301.78 C 111.07 291.22 84.76 270.35 67.56 243.44 C 51.27 218.22 43.32 187.97 44.84 158.00 C 46.20 133.05 53.90 108.50 67.49 87.49 C 81.65 65.25 101.96 47.19 125.63 35.62 C 133.33 31.47 141.70 28.49 150.08 26.08 C 173.09 19.58 197.61 18.84 220.93 24.15 Z" fill="#4b3823" />
<path d="M 172.39 29.43 C 180.21 28.62 188.14 28.14 196.00 28.62 C 222.09 29.69 247.83 38.75 269.01 53.98 C 293.22 71.17 311.45 96.44 320.19 124.81 C 323.99 137.39 326.44 150.82 326.07 164.00 C 327.25 203.21 309.32 242.19 280.02 268.02 C 254.83 290.26 220.71 303.35 187.00 302.05 C 175.49 302.37 163.77 300.32 152.68 297.31 C 126.43 290.03 102.58 274.83 84.99 254.01 C 66.90 232.82 55.42 205.82 53.00 178.04 C 51.00 155.89 54.24 133.39 62.85 112.85 C 75.00 83.23 98.14 58.30 126.46 43.46 C 140.96 36.42 156.33 31.34 172.39 29.43 Z" fill="#cb8b44" />
<path d="M 190.33 32.38 C 192.06 32.03 193.73 33.07 194.82 34.33 C 195.16 35.75 195.17 37.24 194.83 38.66 C 193.33 40.48 191.12 41.73 188.91 40.21 C 185.65 38.40 186.39 32.92 190.33 32.38 Z" fill="#7f654b" />
<path d="M 175.34 46.39 C 193.17 44.35 211.29 45.81 228.30 51.70 C 255.61 61.03 279.17 80.62 293.09 105.93 C 303.01 123.66 307.80 143.76 308.02 164.02 C 307.45 181.35 303.72 198.47 296.10 214.10 C 284.80 237.81 265.23 257.19 241.64 268.64 C 229.22 274.62 215.71 278.54 201.99 279.86 C 189.83 280.48 178.05 280.58 166.11 277.90 C 132.24 270.96 102.31 248.32 86.34 217.67 C 71.90 190.40 68.90 157.55 78.11 128.10 C 85.66 103.40 101.68 81.64 122.77 66.77 C 138.32 55.80 156.47 48.82 175.34 46.39 Z" fill="#4b3823" />
<path d="M 183.35 53.35 C 199.56 52.33 215.95 54.90 231.01 60.98 C 264.77 74.20 290.49 104.83 297.76 140.34 C 302.09 160.79 300.40 182.42 292.94 201.93 C 285.57 221.30 272.59 238.58 255.92 250.92 C 239.77 263.00 220.30 270.52 200.20 272.24 C 181.17 274.03 161.72 270.65 144.37 262.63 C 128.47 255.35 114.45 244.09 103.67 230.34 C 91.90 215.11 84.05 196.80 81.54 177.70 C 79.05 159.56 81.21 140.85 87.76 123.76 C 96.38 101.21 112.52 81.68 133.20 69.20 C 148.36 59.95 165.63 54.47 183.35 53.35 Z" fill="#ffffff" />
<path d="M 100.33 69.23 C 102.37 68.42 104.31 70.16 105.22 71.84 C 107.12 75.19 102.18 79.72 98.90 77.22 C 95.50 75.34 96.42 69.95 100.33 69.23 Z" fill="#7f654b" />
<path d="M 279.28 70.18 C 281.27 69.53 283.37 71.11 284.21 72.83 C 285.94 76.11 281.02 80.68 278.02 78.04 C 274.80 75.86 275.72 71.34 279.28 70.18 Z" fill="#7f654b" />
<path d="M 61.30 156.38 C 64.46 155.92 67.77 158.98 66.31 162.22 C 65.31 164.93 62.26 165.74 59.90 164.21 C 56.64 162.49 57.46 156.90 61.30 156.38 Z" fill="#7f654b" />
<path d="M 316.34 159.22 C 320.12 157.94 323.58 162.93 321.07 166.01 C 319.11 168.57 315.86 168.66 313.99 165.95 C 312.06 163.23 313.31 160.26 316.34 159.22 Z" fill="#7f654b" />
<path d="M 100.53 252.60 C 101.73 254.68 100.46 257.00 99.92 259.08 C 98.07 259.03 96.18 259.07 94.36 258.76 C 92.44 257.38 91.58 255.13 92.84 252.98 C 94.13 249.84 98.79 250.09 100.53 252.60 Z" fill="#7f654b" />
<path d="M 279.23 251.25 C 282.24 250.91 285.78 254.06 284.30 257.22 C 283.32 259.99 280.28 260.71 277.90 259.22 C 274.58 257.50 275.43 251.91 279.23 251.25 Z" fill="#7f654b" />
<path d="M 187.40 287.40 C 191.76 286.34 193.91 292.50 191.11 295.12 C 189.04 296.45 186.09 296.57 184.69 294.20 C 182.99 291.57 184.41 288.21 187.40 287.40 Z" fill="#7f654b" />
</svg>