<?xml version="1.0" encoding="UTF-8" standalone="no"?>
<!DOCTYPE svg PUBLIC "-//W3C//DTD SVG 1.1//EN" "http://www.w3.org/Graphics/SVG/1.1/DTD/svg11.dtd">
<svg xmlns="http://www.w3.org/2000/svg" version="1.1" viewBox="0 0 346 280" width="346.0pt" height="280.0pt">
<path d="M 23.89 18.86 C 28.05 19.57 31.26 24.60 36.00 23.70 C 44.69 22.62 53.27 23.03 62.00 22.98 C 69.69 23.52 77.33 25.10 84.99 25.99 C 101.94 28.70 119.01 25.48 136.00 24.98 C 144.57 24.59 152.68 27.08 161.24 26.73 C 162.28 27.70 162.60 28.93 162.21 30.41 L 161.54 29.88 C 161.12 29.29 160.72 28.67 160.36 28.04 C 156.47 27.98 152.68 28.24 148.85 27.35 C 142.24 26.58 135.64 26.52 129.00 26.98 C 122.57 26.64 116.44 28.34 110.00 28.07 C 104.03 28.61 98.47 28.84 92.48 28.24 C 87.59 27.94 82.72 27.17 77.88 26.43 C 70.63 25.20 63.35 24.76 56.00 24.20 C 47.98 24.45 40.09 25.47 32.03 24.92 C 30.21 24.13 28.57 22.86 26.90 21.79 L 27.20 24.35 L 26.16 23.79 C 25.19 22.25 24.47 20.58 23.89 18.86 Z" fill="#8d816f" />
<path d="M 21.01 20.61 C 23.38 22.12 24.96 24.21 27.81 24.87 L 28.10 27.21 C 25.54 27.15 23.76 24.57 21.85 23.05 C 23.39 28.43 23.61 33.80 20.80 38.81 L 20.18 39.14 C 19.84 40.03 19.84 41.01 20.17 42.07 C 21.40 50.50 23.36 59.02 23.36 67.56 C 26.79 72.21 25.96 77.70 25.35 83.06 C 24.92 91.53 22.80 99.59 21.47 107.91 C 23.04 108.92 24.60 109.94 26.17 110.96 C 24.70 111.39 23.24 111.81 21.77 112.23 C 21.88 114.41 21.54 116.39 22.71 118.33 C 25.06 122.40 24.52 127.35 25.78 131.88 C 26.66 138.08 25.56 144.32 26.34 150.49 C 26.40 150.94 26.46 151.38 26.52 151.82 C 26.81 153.87 27.15 155.91 27.37 157.97 C 27.98 163.12 27.91 168.06 26.27 173.03 C 25.83 174.07 25.93 175.11 26.56 176.14 C 28.08 182.32 25.47 189.27 26.01 195.73 C 28.45 197.78 28.18 198.78 27.80 201.81 C 27.55 202.77 27.28 203.74 27.00 204.70 C 28.69 205.22 30.39 205.72 32.05 206.32 C 32.79 207.05 33.48 207.82 34.22 208.56 C 31.63 209.75 29.07 210.77 26.27 211.38 L 27.02 210.21 C 28.72 209.60 30.45 209.07 32.18 208.53 C 30.17 207.34 28.13 206.52 25.90 205.85 C 25.99 203.49 26.15 201.13 26.34 198.77 C 25.70 197.63 24.32 196.41 24.62 195.05 C 25.16 189.21 24.30 183.86 25.79 178.17 C 25.21 176.79 24.24 175.56 24.69 174.01 C 26.72 166.85 26.22 159.28 25.09 152.01 C 23.70 141.10 25.05 131.41 22.21 120.80 C 20.43 117.96 19.54 112.69 22.01 110.07 C 21.29 109.37 20.57 108.67 19.85 107.97 C 22.19 95.63 24.99 83.86 23.82 71.17 C 23.26 70.06 22.33 69.12 21.56 68.15 C 21.81 66.42 22.15 64.77 21.86 63.02 C 20.61 55.17 19.37 47.32 18.22 39.46 C 19.16 38.11 20.56 36.60 20.85 34.95 C 21.24 31.23 21.16 27.46 20.52 23.77 C 20.23 22.69 20.39 21.64 21.01 20.61 Z" fill="#8d816f" />
<path d="M 26.90 21.79 C 28.57 22.86 30.21 24.13 32.03 24.92 C 40.09 25.47 47.98 24.45 56.00 24.20 C 63.35 24.76 70.63 25.20 77.88 26.43 C 80.58 28.45 83.75 28.26 87.01 28.69 C 88.88 28.92 90.65 28.56 92.48 28.24 C 98.47 28.84 104.03 28.61 110.00 28.07 C 116.44 28.34 122.57 26.64 129.00 26.98 C 135.64 26.52 142.24 26.58 148.85 27.35 C 152.68 28.24 156.47 27.98 160.36 28.04 C 160.72 28.67 161.12 29.29 161.54 29.88 L 161.93 30.48 C 162.30 32.48 161.04 34.76 163.69 35.22 C 164.36 32.77 164.90 30.33 165.32 27.83 C 168.59 28.31 171.81 29.32 175.04 28.98 C 179.19 28.57 183.41 27.42 187.47 26.46 C 192.80 26.33 198.19 26.03 203.51 25.62 C 205.39 26.17 206.94 27.00 208.96 27.00 C 215.31 27.09 221.68 26.87 228.02 27.07 C 232.88 27.32 238.64 29.74 242.96 26.86 C 244.56 29.95 246.07 32.87 246.31 36.43 C 248.69 34.38 248.36 29.82 249.15 26.95 C 251.41 27.48 253.66 27.97 255.99 28.01 C 262.37 28.18 269.01 28.41 275.33 27.43 C 280.81 28.64 286.99 27.01 292.42 26.01 C 297.00 25.68 301.37 26.70 305.55 28.51 C 307.71 29.32 309.32 30.56 311.72 29.68 C 315.57 28.43 319.40 29.71 323.16 27.97 C 321.72 32.80 320.80 37.92 318.61 42.48 C 319.86 42.20 321.02 41.77 322.10 41.16 C 322.64 41.53 323.18 41.89 323.73 42.26 C 323.97 44.68 324.29 47.09 324.60 49.51 C 323.23 54.91 319.80 58.93 320.04 65.02 C 320.83 73.01 324.29 79.71 324.02 88.00 C 323.64 95.33 321.71 102.65 321.97 110.00 C 321.86 113.37 322.19 116.67 322.47 120.02 C 322.09 122.79 320.79 125.10 320.88 127.99 C 320.81 130.78 321.69 133.29 321.97 136.02 C 321.53 139.39 320.35 142.10 321.70 145.48 C 320.23 146.43 317.08 146.22 318.13 148.65 C 319.55 148.94 320.98 149.21 322.41 149.45 C 320.20 150.71 317.80 151.13 315.43 151.95 C 312.92 151.69 310.52 151.50 308.37 150.02 C 310.62 146.60 314.20 145.80 317.69 143.80 C 318.68 136.41 314.72 130.28 315.26 122.98 C 315.38 112.79 320.43 102.98 319.80 93.00 C 319.75 87.53 320.01 82.34 318.89 76.98 C 317.93 71.65 316.03 66.45 316.74 60.98 C 317.16 56.14 319.69 51.99 319.95 47.10 C 317.14 49.18 314.75 51.61 311.66 53.32 C 312.83 50.20 314.86 47.78 316.68 45.05 C 316.32 43.73 315.95 42.40 315.59 41.08 C 313.06 43.54 310.87 46.79 307.75 48.34 C 308.96 44.54 311.63 41.71 313.24 38.06 C 308.96 40.15 305.37 44.17 300.78 45.37 C 303.26 40.13 307.85 37.86 312.01 34.09 C 305.85 34.55 300.57 37.71 294.50 38.40 C 297.08 35.05 302.52 34.54 306.08 32.27 C 299.08 31.49 293.37 34.37 286.65 35.32 C 288.23 32.22 293.26 32.31 296.10 30.42 C 291.68 30.67 287.44 31.97 283.00 32.17 C 273.02 32.78 262.96 31.01 252.97 30.78 C 249.67 30.66 250.64 35.88 248.42 37.37 C 246.90 37.86 245.17 38.31 243.82 37.18 C 241.17 35.22 239.22 32.24 237.02 29.79 C 227.25 29.01 217.72 31.11 207.97 30.62 C 203.48 30.38 199.57 28.99 195.00 29.57 C 189.00 30.28 183.01 31.09 177.00 31.74 C 175.06 32.03 172.83 32.12 171.04 32.99 C 168.18 34.68 167.72 39.37 164.99 40.96 C 160.94 39.51 159.93 34.29 157.83 31.07 C 152.72 29.94 147.22 30.70 142.00 30.11 C 135.36 29.56 128.68 31.08 122.00 31.11 C 111.96 31.30 102.01 32.41 92.00 33.08 C 86.35 33.25 80.53 32.17 75.00 31.07 C 71.10 30.14 67.22 31.22 63.00 31.19 C 54.97 31.26 47.53 30.93 39.91 33.94 C 37.30 35.11 33.76 35.96 32.79 38.98 C 38.12 36.72 42.42 33.67 48.49 33.67 C 46.43 36.54 41.97 37.13 39.07 39.13 C 36.05 41.08 31.28 43.82 30.97 47.79 C 36.82 44.07 41.24 39.68 48.24 37.91 C 47.59 39.56 46.91 40.46 45.51 41.54 C 41.38 44.76 37.30 47.90 33.59 51.62 C 32.26 52.87 31.79 54.45 31.20 56.11 C 36.04 52.94 39.79 48.92 45.51 47.08 C 42.61 52.83 35.82 56.18 32.88 62.06 C 34.74 60.92 36.52 59.74 38.40 58.63 C 38.45 63.27 32.09 66.96 32.34 71.96 C 32.40 79.52 31.23 86.96 31.22 94.52 C 33.47 93.68 37.75 90.92 39.87 92.90 C 37.70 94.69 35.42 96.31 33.06 97.82 C 34.84 97.53 36.62 97.25 38.40 97.01 C 37.13 100.11 32.79 101.89 30.45 104.32 C 28.61 123.05 30.02 141.34 31.86 159.99 C 33.04 168.16 29.70 176.31 29.88 184.74 C 30.40 186.90 31.21 189.00 31.83 191.13 C 32.68 191.67 33.53 192.20 34.38 192.74 C 33.10 194.70 31.97 196.71 31.08 198.87 C 34.81 198.96 36.87 194.38 40.20 192.77 C 39.55 196.23 37.32 198.37 35.43 201.25 C 36.25 203.44 37.16 205.57 38.17 207.68 C 39.78 206.23 41.30 204.76 43.03 203.45 L 43.97 203.97 L 44.13 204.94 C 40.98 211.54 34.77 216.51 31.89 223.17 C 36.49 220.32 39.72 216.21 44.31 213.24 C 45.10 212.71 46.06 212.52 47.19 212.68 C 44.12 218.51 38.08 222.80 34.71 228.09 C 36.70 228.53 39.50 229.17 41.40 228.35 C 44.92 225.66 46.26 221.76 50.40 219.75 C 50.62 223.92 46.62 226.46 46.01 230.70 C 47.20 231.05 48.39 231.41 49.58 231.77 C 51.32 229.45 52.89 226.97 54.76 224.76 C 55.27 224.12 56.06 223.81 57.13 223.83 C 56.49 227.06 54.77 229.83 53.30 232.69 C 55.91 233.21 58.39 233.75 61.04 233.11 C 69.51 231.47 77.25 229.31 86.00 229.64 C 90.47 229.66 94.51 231.00 98.69 232.36 C 100.84 232.92 102.72 233.81 104.92 232.95 C 107.44 232.31 109.40 229.62 111.80 229.18 C 113.80 230.35 115.71 232.49 117.98 232.96 C 121.21 233.60 124.71 233.26 128.00 233.32 C 134.33 233.28 140.54 234.32 146.86 234.52 C 151.19 234.66 156.26 235.64 160.44 234.43 C 164.09 233.11 165.55 228.13 168.07 226.33 C 170.09 226.98 171.87 229.97 173.43 231.48 C 177.92 232.06 182.39 232.73 186.87 233.39 C 200.54 234.86 214.34 234.79 227.93 232.64 C 233.88 231.65 239.96 230.91 246.00 230.87 C 252.19 231.26 258.15 232.19 264.39 231.49 C 268.75 230.93 273.05 230.58 277.45 230.59 C 277.44 229.55 277.42 228.54 277.41 227.56 C 279.01 228.20 280.57 228.95 282.20 229.51 C 285.30 229.75 288.61 228.53 291.64 227.87 C 290.44 226.32 289.17 225.05 288.99 222.98 C 291.41 223.72 293.22 225.33 295.38 226.53 C 297.06 226.84 298.78 225.82 300.32 225.22 C 297.71 221.56 294.79 218.63 292.87 214.53 C 297.51 216.30 300.48 221.56 305.01 223.63 C 306.38 223.44 307.74 222.96 309.06 222.57 C 305.43 218.06 300.64 215.14 297.92 209.75 L 299.76 210.22 C 304.10 212.97 307.21 216.91 312.11 219.08 C 309.60 214.19 304.30 210.74 302.54 205.63 C 304.38 205.23 305.21 206.50 306.45 207.54 C 309.52 210.52 312.33 213.63 315.91 216.01 C 316.42 209.93 308.71 208.86 308.65 202.65 C 312.03 204.40 313.86 207.69 317.41 209.17 C 317.31 203.75 316.36 198.44 316.58 193.00 C 316.89 181.29 318.38 169.79 319.79 158.19 C 316.80 156.37 311.74 155.93 309.77 153.03 C 311.39 152.86 313.02 152.76 314.65 152.66 C 317.85 154.08 321.09 155.33 324.48 156.24 C 322.45 162.73 321.88 169.29 321.02 175.99 C 320.62 179.79 321.58 183.28 322.00 186.99 C 322.34 190.57 319.19 193.15 320.11 196.91 C 321.44 200.89 323.90 204.19 322.50 208.56 C 321.16 212.78 322.24 216.96 321.33 221.19 C 320.95 223.05 320.97 224.91 320.98 226.79 C 321.97 227.74 322.96 228.73 323.96 229.66 C 322.04 230.55 320.15 231.40 318.54 232.82 C 319.69 233.76 320.85 234.71 321.99 235.66 C 314.97 233.22 306.96 233.31 299.96 235.80 C 292.65 238.35 284.74 239.45 277.02 238.88 C 267.74 237.81 258.28 237.09 249.01 236.02 C 231.64 235.33 212.49 241.32 194.37 238.59 C 187.92 237.30 182.46 234.48 175.76 236.77 C 175.23 235.94 174.69 235.10 174.14 234.24 C 173.32 235.02 172.50 235.81 171.68 236.59 C 170.60 234.08 169.48 231.62 167.96 229.35 C 166.13 231.72 165.31 236.33 162.92 237.89 C 154.53 238.35 146.35 237.88 138.00 237.37 C 130.11 237.55 122.30 238.34 114.38 237.93 C 113.79 236.58 113.20 235.23 112.60 233.88 C 112.15 234.62 111.69 235.36 111.23 236.10 C 110.18 235.87 109.46 236.28 109.09 237.30 C 98.44 237.98 88.51 234.31 77.96 235.02 C 71.19 235.57 64.85 237.39 58.00 237.03 C 49.22 237.43 42.07 232.12 32.99 232.74 C 30.34 232.63 28.44 233.91 26.26 235.18 C 26.72 231.78 26.90 228.41 26.09 225.04 C 27.17 224.25 27.41 223.18 26.81 221.84 C 28.87 219.15 28.58 213.94 26.26 211.42 L 26.27 211.38 C 29.07 210.77 31.63 209.75 34.22 208.56 C 33.48 207.82 32.79 207.05 32.05 206.32 C 30.63 204.82 29.24 203.29 27.80 201.81 C 28.18 198.78 28.45 197.78 26.01 195.73 C 25.47 189.27 28.08 182.32 26.56 176.14 C 27.47 175.18 27.83 173.49 26.27 173.03 C 27.91 168.06 27.98 163.12 27.37 157.97 C 28.32 156.04 28.64 154.06 27.94 151.99 C 27.68 151.47 27.20 151.42 26.52 151.82 C 26.46 151.38 26.40 150.94 26.34 150.49 C 27.03 144.56 27.42 137.65 25.78 131.88 C 24.52 127.35 25.06 122.40 22.71 118.33 C 21.54 116.39 21.88 114.41 21.77 112.23 C 23.24 111.81 24.70 111.39 26.17 110.96 C 24.60 109.94 23.04 108.92 21.47 107.91 C 22.80 99.59 24.92 91.53 25.35 83.06 C 25.96 77.70 26.79 72.21 23.36 67.56 C 23.36 59.02 21.40 50.50 20.17 42.07 C 21.26 41.21 21.47 40.12 20.80 38.81 C 23.61 33.80 23.39 28.43 21.85 23.05 C 23.76 24.57 25.54 27.15 28.10 27.21 L 27.81 24.87 L 27.20 24.35 L 26.90 21.79 Z" fill="#e0bf8d" />
<path d="M 199.02 23.21 C 203.56 23.65 207.26 25.94 212.00 25.40 C 220.41 24.78 228.61 25.65 236.97 26.51 C 239.53 26.91 241.47 25.81 243.80 25.00 C 244.98 27.10 245.96 29.21 246.77 31.47 C 247.13 29.47 247.58 27.52 248.10 25.56 C 255.81 26.57 263.20 27.67 270.98 26.43 C 281.28 25.36 291.34 22.94 301.55 25.45 C 304.44 26.11 307.11 27.85 310.03 28.22 C 312.07 27.98 313.94 27.38 316.01 27.58 C 318.95 27.92 321.29 26.77 324.08 26.02 C 324.44 29.84 324.41 32.36 322.24 35.63 C 322.79 35.98 323.33 36.33 323.87 36.68 C 323.11 37.57 322.35 38.47 321.59 39.37 C 322.74 38.88 323.88 38.40 325.02 37.91 C 326.39 40.96 326.63 44.53 326.45 47.83 C 325.96 53.94 321.73 57.82 322.11 64.00 C 321.92 69.72 323.83 74.59 324.85 80.08 C 325.98 89.66 324.72 98.58 323.39 108.02 C 322.82 111.81 323.68 115.25 323.79 119.01 C 323.89 121.65 322.70 124.32 322.33 126.99 C 322.27 129.27 322.87 131.56 323.07 133.83 C 323.48 138.18 322.60 142.13 323.85 146.26 C 322.49 146.65 321.13 147.06 319.77 147.45 C 322.00 147.98 324.13 148.48 326.00 149.88 C 323.86 152.14 320.52 151.90 317.69 152.47 C 320.52 153.48 323.37 154.44 326.26 155.25 C 325.07 160.47 324.07 165.80 323.38 171.11 C 322.95 176.41 323.14 181.83 323.56 187.13 C 323.84 190.33 321.84 192.78 322.12 196.02 C 322.23 198.78 324.28 201.11 324.34 203.98 C 324.90 208.16 323.01 211.86 323.32 215.98 C 323.57 219.05 323.02 221.98 322.69 225.01 C 323.18 227.44 325.82 228.08 325.16 230.94 C 323.87 231.56 322.58 232.20 321.30 232.82 C 322.86 234.32 324.20 235.60 324.61 237.83 C 319.60 236.99 315.21 235.30 309.99 235.54 C 303.28 235.99 296.89 239.06 290.06 240.05 C 278.52 241.30 267.85 239.80 256.44 238.49 C 250.00 237.88 243.45 238.24 236.98 238.21 C 223.41 239.08 208.44 242.88 194.89 240.38 C 187.88 239.38 182.38 236.20 175.23 238.59 C 174.67 238.05 174.10 237.51 173.52 236.97 C 173.02 238.02 172.52 239.06 172.02 240.11 C 170.23 237.88 169.31 235.30 168.19 232.71 C 167.06 234.70 166.08 236.95 164.57 238.69 C 159.30 241.41 151.68 239.80 146.02 239.36 C 135.23 238.93 124.39 239.31 113.59 239.50 C 113.28 238.62 112.95 237.73 112.60 236.83 C 112.12 237.59 111.65 238.36 111.18 239.13 C 103.54 239.74 96.50 238.33 89.03 237.22 C 78.28 235.39 68.85 238.59 58.00 239.13 C 51.01 238.62 45.03 236.14 38.32 234.62 C 33.91 233.71 29.09 234.06 25.84 237.53 C 24.02 232.30 25.84 226.67 23.93 221.27 C 25.17 220.63 26.44 220.40 26.91 218.91 C 26.95 216.43 26.01 213.87 26.26 211.42 C 28.58 213.94 28.87 219.15 26.81 221.84 L 26.15 222.09 C 25.79 222.98 25.77 223.96 26.09 225.04 C 26.90 228.41 26.72 231.78 26.26 235.18 C 28.44 233.91 30.34 232.63 32.99 232.74 C 42.07 232.12 49.22 237.43 58.00 237.03 C 64.85 237.39 71.19 235.57 77.96 235.02 C 88.51 234.31 98.44 237.98 109.09 237.30 L 110.94 236.90 L 111.23 236.10 C 111.69 235.36 112.15 234.62 112.60 233.88 C 113.20 235.23 113.79 236.58 114.38 237.93 C 122.30 238.34 130.11 237.55 138.00 237.37 C 146.35 237.88 154.53 238.35 162.92 237.89 C 165.31 236.33 166.13 231.72 167.96 229.35 C 169.48 231.62 170.60 234.08 171.68 236.59 C 172.50 235.81 173.32 235.02 174.14 234.24 C 174.69 235.10 175.23 235.94 175.76 236.77 C 182.46 234.48 187.92 237.30 194.37 238.59 C 212.49 241.32 231.64 235.33 249.01 236.02 C 258.28 237.09 267.74 237.81 277.02 238.88 C 284.74 239.45 292.65 238.35 299.96 235.80 C 306.96 233.31 314.97 233.22 321.99 235.66 C 320.85 234.71 319.69 233.76 318.54 232.82 C 320.15 231.40 322.04 230.55 323.96 229.66 C 322.96 228.73 321.97 227.74 320.98 226.79 C 320.97 224.91 320.95 223.05 321.33 221.19 C 322.24 216.96 321.16 212.78 322.50 208.56 C 323.90 204.19 321.44 200.89 320.11 196.91 C 319.19 193.15 322.34 190.57 322.00 186.99 C 321.58 183.28 320.62 179.79 321.02 175.99 C 321.88 169.29 322.45 162.73 324.48 156.24 C 321.09 155.33 317.85 154.08 314.65 152.66 L 315.43 151.95 C 317.80 151.13 320.20 150.71 322.41 149.45 C 320.98 149.21 319.55 148.94 318.13 148.65 C 317.08 146.22 320.23 146.43 321.70 145.48 C 320.35 142.10 321.53 139.39 321.97 136.02 C 321.69 133.29 320.81 130.78 320.88 127.99 C 320.79 125.10 322.09 122.79 322.47 120.02 C 322.19 116.67 321.86 113.37 321.97 110.00 C 321.71 102.65 323.64 95.33 324.02 88.00 C 324.29 79.71 320.83 73.01 320.04 65.02 C 319.80 58.93 323.23 54.91 324.60 49.51 C 325.19 46.33 324.96 43.23 324.65 40.05 C 323.76 40.26 322.91 40.63 322.10 41.16 C 321.02 41.77 319.86 42.20 318.61 42.48 C 320.80 37.92 321.72 32.80 323.16 27.97 C 319.40 29.71 315.57 28.43 311.72 29.68 C 309.32 30.56 307.71 29.32 305.55 28.51 C 301.37 26.70 297.00 25.68 292.42 26.01 C 286.60 25.65 281.05 26.51 275.33 27.43 C 269.01 28.41 262.37 28.18 255.99 28.01 C 253.66 27.97 251.41 27.48 249.15 26.95 C 248.36 29.82 248.69 34.38 246.31 36.43 C 246.07 32.87 244.56 29.95 242.96 26.86 C 238.64 29.74 232.88 27.32 228.02 27.07 C 221.68 26.87 215.31 27.09 208.96 27.00 C 206.94 27.00 205.39 26.17 203.51 25.62 C 198.38 24.30 192.50 24.86 187.47 26.46 C 183.41 27.42 179.19 28.57 175.04 28.98 C 171.81 29.32 168.59 28.31 165.32 27.83 C 164.90 30.33 164.36 32.77 163.69 35.22 C 161.04 34.76 162.30 32.48 161.93 30.48 C 162.49 30.39 163.05 30.30 163.60 30.20 C 163.87 28.91 164.14 27.63 164.41 26.34 C 167.61 26.91 170.72 27.46 174.00 27.27 C 182.27 27.12 190.47 23.03 199.02 23.21 Z" fill="#8d816f" />
<path d="M 203.51 25.62 C 198.19 26.03 192.80 26.33 187.47 26.46 C 192.50 24.86 198.38 24.30 203.51 25.62 Z" fill="#fae5be" />
<path d="M 292.42 26.01 C 286.99 27.01 280.81 28.64 275.33 27.43 C 281.05 26.51 286.60 25.65 292.42 26.01 Z" fill="#fae5be" />
<path d="M 77.88 26.43 C 82.72 27.17 87.59 27.94 92.48 28.24 C 90.65 28.56 88.88 28.92 87.01 28.69 C 83.75 28.26 80.58 28.45 77.88 26.43 Z" fill="#fae5be" />
<path d="M 75.00 31.07 C 80.53 32.17 86.35 33.25 92.00 33.08 C 102.01 32.41 111.96 31.30 122.00 31.11 C 128.68 31.08 135.36 29.56 142.00 30.11 C 147.22 30.70 152.72 29.94 157.83 31.07 C 159.93 34.29 160.94 39.51 164.99 40.96 C 167.72 39.37 168.18 34.68 171.04 32.99 C 172.83 32.12 175.06 32.03 177.00 31.74 C 183.01 31.09 189.00 30.28 195.00 29.57 C 199.57 28.99 203.48 30.38 207.97 30.62 C 217.72 31.11 227.25 29.01 237.02 29.79 C 239.22 32.24 241.17 35.22 243.82 37.18 C 245.17 38.31 246.90 37.86 248.42 37.37 C 250.64 35.88 249.67 30.66 252.97 30.78 C 262.96 31.01 273.02 32.78 283.00 32.17 C 287.44 31.97 291.68 30.67 296.10 30.42 C 293.26 32.31 288.23 32.22 286.65 35.32 C 293.37 34.37 299.08 31.49 306.08 32.27 C 302.52 34.54 297.08 35.05 294.50 38.40 C 300.57 37.71 305.85 34.55 312.01 34.09 C 307.85 37.86 303.26 40.13 300.78 45.37 C 305.37 44.17 308.96 40.15 313.24 38.06 C 311.63 41.71 308.96 44.54 307.75 48.34 C 310.87 46.79 313.06 43.54 315.59 41.08 C 315.95 42.40 316.32 43.73 316.68 45.05 C 314.86 47.78 312.83 50.20 311.66 53.32 C 314.75 51.61 317.14 49.18 319.95 47.10 C 319.69 51.99 317.16 56.14 316.74 60.98 C 316.03 66.45 317.93 71.65 318.89 76.98 C 320.01 82.34 319.75 87.53 319.80 93.00 C 320.43 102.98 315.38 112.79 315.26 122.98 C 314.72 130.28 318.68 136.41 317.69 143.80 C 314.20 145.80 310.62 146.60 308.37 150.02 C 310.52 151.50 312.92 151.69 315.43 151.95 L 314.65 152.66 C 313.02 152.76 311.39 152.86 309.77 153.03 C 311.74 155.93 316.80 156.37 319.79 158.19 C 318.38 169.79 316.89 181.29 316.58 193.00 C 316.36 198.44 317.31 203.75 317.41 209.17 C 313.86 207.69 312.03 204.40 308.65 202.65 C 308.71 208.86 316.42 209.93 315.91 216.01 C 312.33 213.63 309.52 210.52 306.45 207.54 C 305.21 206.50 304.38 205.23 302.54 205.63 C 304.30 210.74 309.60 214.19 312.11 219.08 C 307.21 216.91 304.10 212.97 299.76 210.22 L 297.92 209.75 C 300.64 215.14 305.43 218.06 309.06 222.57 C 307.74 222.96 306.38 223.44 305.01 223.63 C 300.48 221.56 297.51 216.30 292.87 214.53 C 294.79 218.63 297.71 221.56 300.32 225.22 C 298.78 225.82 297.06 226.84 295.38 226.53 C 293.22 225.33 291.41 223.72 288.99 222.98 C 289.17 225.05 290.44 226.32 291.64 227.87 C 288.61 228.53 285.30 229.75 282.20 229.51 C 280.57 228.95 279.01 228.20 277.41 227.56 C 277.42 228.54 277.44 229.55 277.45 230.59 C 273.05 230.58 268.75 230.93 264.39 231.49 C 258.15 232.19 252.19 231.26 246.00 230.87 C 239.96 230.91 233.88 231.65 227.93 232.64 C 214.34 234.79 200.54 234.86 186.87 233.39 C 182.39 232.73 177.92 232.06 173.43 231.48 C 171.87 229.97 170.09 226.98 168.07 226.33 C 165.55 228.13 164.09 233.11 160.44 234.43 C 156.26 235.64 151.19 234.66 146.86 234.52 C 140.54 234.32 134.33 233.28 128.00 233.32 C 124.71 233.26 121.21 233.60 117.98 232.96 C 115.71 232.49 113.80 230.35 111.80 229.18 C 109.40 229.62 107.44 232.31 104.92 232.95 C 102.72 233.81 100.84 232.92 98.69 232.36 C 94.51 231.00 90.47 229.66 86.00 229.64 C 77.25 229.31 69.51 231.47 61.04 233.11 C 58.39 233.75 55.91 233.21 53.30 232.69 C 54.77 229.83 56.49 227.06 57.13 223.83 C 56.06 223.81 55.27 224.12 54.76 224.76 C 52.89 226.97 51.32 229.45 49.58 231.77 C 48.39 231.41 47.20 231.05 46.01 230.70 C 46.62 226.46 50.62 223.92 50.40 219.75 C 46.26 221.76 44.92 225.66 41.40 228.35 C 39.50 229.17 36.70 228.53 34.71 228.09 C 38.08 222.80 44.12 218.51 47.19 212.68 C 46.06 212.52 45.10 212.71 44.31 213.24 C 39.72 216.21 36.49 220.32 31.89 223.17 C 34.77 216.51 40.98 211.54 44.13 204.94 L 43.97 203.97 L 43.03 203.45 C 41.30 204.76 39.78 206.23 38.17 207.68 C 37.16 205.57 36.25 203.44 35.43 201.25 C 37.32 198.37 39.55 196.23 40.20 192.77 C 36.87 194.38 34.81 198.96 31.08 198.87 C 31.97 196.71 33.10 194.70 34.38 192.74 C 33.53 192.20 32.68 191.67 31.83 191.13 C 31.21 189.00 30.40 186.90 29.88 184.74 C 29.70 176.31 33.04 168.16 31.86 159.99 C 30.02 141.34 28.61 123.05 30.45 104.32 C 32.79 101.89 37.13 100.11 38.40 97.01 C 36.62 97.25 34.84 97.53 33.06 97.82 C 35.42 96.31 37.70 94.69 39.87 92.90 C 37.75 90.92 33.47 93.68 31.22 94.52 C 31.23 86.96 32.40 79.52 32.34 71.96 C 32.09 66.96 38.45 63.27 38.40 58.63 C 36.52 59.74 34.74 60.92 32.88 62.06 C 35.82 56.18 42.61 52.83 45.51 47.08 C 39.79 48.92 36.04 52.94 31.20 56.11 C 31.79 54.45 32.26 52.87 33.59 51.62 C 37.30 47.90 41.38 44.76 45.51 41.54 C 46.91 40.46 47.59 39.56 48.24 37.91 C 41.24 39.68 36.82 44.07 30.97 47.79 C 31.28 43.82 36.05 41.08 39.07 39.13 C 41.97 37.13 46.43 36.54 48.49 33.67 C 42.42 33.67 38.12 36.72 32.79 38.98 C 33.76 35.96 37.30 35.11 39.91 33.94 C 47.53 30.93 54.97 31.26 63.00 31.19 C 67.22 31.22 71.10 30.14 75.00 31.07 Z" fill="#fae5be" />
<path d="M 20.18 39.14 L 20.80 38.81 C 21.47 40.12 21.26 41.21 20.17 42.07 C 19.84 41.01 19.84 40.03 20.18 39.14 Z" fill="#fae5be" />
<path d="M 324.65 40.05 C 324.96 43.23 325.19 46.33 324.60 49.51 C 324.29 47.09 323.97 44.68 323.73 42.26 C 323.18 41.89 322.64 41.53 322.10 41.16 C 322.91 40.63 323.76 40.26 324.65 40.05 Z" fill="#fae5be" />
<path d="M 25.78 131.88 C 27.42 137.65 27.03 144.56 26.34 150.49 C 25.56 144.32 26.66 138.08 25.78 131.88 Z" fill="#fae5be" />
<path d="M 27.94 151.99 C 28.64 154.06 28.32 156.04 27.37 157.97 C 27.15 155.91 26.81 153.87 26.52 151.82 C 27.20 151.42 27.68 151.47 27.94 151.99 Z" fill="#fae5be" />
<path d="M 26.27 173.03 C 27.83 173.49 27.47 175.18 26.56 176.14 C 25.93 175.11 25.83 174.07 26.27 173.03 Z" fill="#fae5be" />
<path d="M 27.80 201.81 C 29.24 203.29 30.63 204.82 32.05 206.32 C 30.39 205.72 28.69 205.22 27.00 204.70 C 27.28 203.74 27.55 202.77 27.80 201.81 Z" fill="#fae5be" />
<path d="M 26.15 222.09 L 26.81 221.84 C 27.41 223.18 27.17 224.25 26.09 225.04 C 25.77 223.96 25.79 222.98 26.15 222.09 Z" fill="#fae5be" />
<path d="M 111.23 236.10 L 110.94 236.90 L 109.09 237.30 C 109.46 236.28 110.18 235.87 111.23 236.10 Z" fill="#fae5be" />
</svg>