<?xml version="1.0" encoding="UTF-8" standalone="no"?>
<!DOCTYPE svg PUBLIC "-//W3C//DTD SVG 1.1//EN" "http://www.w3.org/Graphics/SVG/1.1/DTD/svg11.dtd">
<svg xmlns="http://www.w3.org/2000/svg" version="1.1" viewBox="0 0 271 277" width="271.0pt" height="277.0pt">
<path d="M 77.22 25.32 C 81.21 24.90 83.90 27.36 87.96 27.54 C 129.90 29.80 172.07 32.03 214.03 34.26 C 218.31 34.52 222.51 35.67 226.76 36.28 C 231.55 37.05 234.33 40.19 237.88 43.14 C 241.96 46.65 245.49 50.53 247.33 55.69 C 251.17 66.58 252.26 78.59 251.22 90.05 C 250.71 96.65 247.42 102.79 244.87 108.87 C 243.03 113.32 240.95 117.59 238.75 121.87 C 236.46 125.94 238.06 130.52 237.76 134.97 C 236.73 159.26 235.55 183.60 234.48 207.89 C 234.44 211.03 232.98 212.77 230.50 214.46 C 214.66 225.34 198.65 236.00 182.83 246.92 C 181.16 247.92 179.52 249.44 177.44 249.04 C 173.32 248.29 169.28 249.27 165.15 248.64 C 125.14 243.39 85.11 238.01 45.10 232.80 C 42.44 232.38 39.36 232.31 36.92 231.11 C 35.18 229.42 34.63 227.24 34.44 224.89 C 32.38 199.48 30.42 174.41 28.47 149.00 C 28.51 146.75 29.37 144.62 31.38 143.44 C 38.04 139.27 45.19 135.88 51.94 131.88 C 53.85 130.92 54.44 128.21 55.52 126.46 C 57.55 122.29 61.73 119.90 65.47 117.46 C 69.35 114.92 73.64 113.48 78.13 112.45 C 68.25 100.79 58.60 88.92 48.74 77.25 C 47.29 75.48 45.45 73.66 44.62 71.52 C 43.64 67.08 43.06 62.76 44.35 58.32 C 46.97 48.84 53.57 40.27 60.78 33.77 C 65.33 29.97 71.19 25.90 77.22 25.32 Z" fill="#4f3d1f" />
<path d="M 74.67 34.65 C 77.78 34.64 80.88 34.94 83.98 35.08 C 77.49 44.28 71.29 52.74 69.47 64.18 C 63.25 63.97 57.11 63.21 50.91 62.62 C 52.56 58.09 53.98 53.78 56.79 49.79 C 60.05 45.16 63.94 40.84 68.47 37.41 C 70.26 36.15 72.39 34.59 74.67 34.65 Z" fill="#c48e56" />
<path d="M 113.35 36.52 C 135.57 37.67 157.84 38.77 180.06 40.16 C 174.45 46.01 168.78 52.19 165.99 59.95 C 164.38 64.25 164.04 68.65 163.68 73.19 C 138.10 70.96 112.56 68.24 86.97 66.20 C 83.37 65.84 79.92 64.99 76.41 64.18 C 78.42 58.24 80.73 52.51 84.29 47.31 C 86.64 43.85 89.37 39.14 93.26 37.31 C 99.29 34.98 107.01 36.10 113.35 36.52 Z" fill="#9d6a3d" />
<path d="M 208.53 41.94 C 204.11 46.46 199.54 50.67 195.90 55.88 C 191.58 62.03 187.33 68.44 184.05 75.20 C 178.90 74.44 173.81 73.95 168.62 73.67 C 170.64 61.75 177.81 50.57 187.78 43.75 C 194.00 39.32 201.48 41.07 208.53 41.94 Z" fill="#c48e56" />
<path d="M 223.65 43.31 C 228.05 44.12 232.03 47.85 235.13 50.90 C 240.51 56.40 242.20 63.43 243.29 70.81 C 244.45 79.34 244.83 88.51 241.74 96.69 C 238.90 104.25 235.56 111.61 231.45 118.58 C 218.13 104.52 205.09 90.20 191.95 75.98 C 193.78 72.81 195.54 69.61 197.44 66.48 C 201.94 59.13 207.66 52.78 214.10 47.08 C 216.65 44.90 220.13 42.61 223.65 43.31 Z" fill="#9d6a3d" />
<path d="M 53.70 70.45 C 57.41 70.47 61.12 70.83 64.81 71.17 C 80.90 72.80 97.01 74.20 113.10 75.75 C 136.86 77.81 160.93 80.37 184.73 82.22 C 188.70 82.44 190.77 85.02 193.28 87.74 C 204.01 100.19 215.74 111.77 226.41 124.28 C 217.89 124.20 209.41 123.66 200.92 123.03 C 199.23 122.81 197.68 122.82 196.38 121.56 C 193.38 118.87 191.28 115.57 187.84 113.19 C 182.91 109.88 176.91 108.58 171.03 109.18 C 167.89 109.33 164.58 110.30 161.46 109.95 C 157.90 108.72 154.96 105.99 151.35 104.74 C 147.67 103.29 143.43 103.54 139.83 102.03 C 136.30 99.68 133.85 96.10 129.98 94.05 C 124.24 91.04 117.41 89.88 110.98 89.97 C 104.43 89.93 97.85 92.89 92.55 96.57 C 88.41 99.51 86.55 103.61 84.30 107.98 C 76.91 99.25 69.74 90.35 62.33 81.65 C 59.35 78.08 56.06 74.45 53.70 70.45 Z" fill="#9d6a3d" />
<path d="M 116.45 97.51 C 121.47 98.40 127.39 100.18 131.05 103.91 C 133.50 106.41 133.64 109.97 131.94 112.92 C 129.77 116.73 125.34 119.44 121.70 121.70 C 119.99 122.88 117.80 122.28 115.84 122.29 C 110.04 121.96 104.70 123.67 99.43 125.86 C 99.12 124.12 98.92 122.29 98.35 120.61 C 96.51 118.19 93.28 116.47 91.66 113.82 C 91.29 109.42 93.19 105.35 96.73 102.75 C 102.22 98.69 109.59 95.96 116.45 97.51 Z" fill="#ebc36a" />
<path d="M 141.39 109.92 C 146.53 109.76 153.06 112.70 156.41 116.62 C 159.21 119.68 157.74 124.45 155.18 127.15 C 152.49 129.54 148.93 130.89 146.00 133.04 C 143.08 135.21 139.81 136.03 136.44 137.23 C 135.58 135.27 134.82 133.15 133.65 131.35 C 132.19 129.31 129.78 127.77 127.79 126.26 C 131.33 123.89 134.66 121.75 137.17 118.20 C 139.08 115.58 139.86 112.69 141.39 109.92 Z" fill="#ebc36a" />
<path d="M 176.43 116.54 C 182.22 117.49 187.34 121.03 189.90 126.35 C 191.23 129.93 187.33 131.82 185.30 134.01 C 182.71 131.70 180.32 129.36 177.12 127.89 C 173.31 126.14 169.14 125.38 165.03 124.72 C 165.04 122.36 165.05 120.00 165.04 117.64 C 168.92 116.68 172.39 115.58 176.43 116.54 Z" fill="#ebc36a" />
<path d="M 78.47 120.36 C 84.94 118.33 91.30 124.32 92.81 130.26 C 93.39 132.44 91.74 133.94 90.21 135.18 C 85.40 138.67 80.11 141.65 73.98 141.56 C 69.73 141.49 65.12 139.93 62.92 136.04 C 61.77 133.74 61.15 130.31 63.45 128.49 C 67.44 124.71 73.12 121.62 78.47 120.36 Z" fill="#ebc36a" />
<path d="M 108.30 130.31 C 115.48 128.80 122.06 130.74 127.39 135.69 C 130.10 139.56 128.89 145.47 124.29 147.25 C 119.40 149.17 113.08 148.42 107.93 148.08 C 105.29 147.77 102.26 147.75 100.96 144.99 C 98.34 141.05 101.83 136.92 103.32 133.27 C 104.09 131.24 106.45 130.83 108.30 130.31 Z" fill="#ebc36a" />
<path d="M 208.21 130.91 C 213.40 130.72 218.43 131.17 223.51 132.21 C 220.40 133.84 217.34 135.53 214.34 137.34 C 212.32 135.17 210.22 133.09 208.21 130.91 Z" fill="#9d6a3d" />
<path d="M 161.32 132.55 C 167.60 132.10 173.23 133.88 178.41 137.38 C 175.49 139.36 172.61 141.38 169.88 143.62 C 168.11 141.58 166.38 139.36 163.98 138.05 C 161.79 136.87 159.40 136.03 157.12 135.05 C 158.48 134.19 159.84 133.22 161.32 132.55 Z" fill="#ebc36a" />
<path d="M 194.40 134.80 C 199.74 135.33 203.50 137.16 207.57 140.54 C 206.38 141.30 205.18 142.06 203.99 142.82 C 201.03 139.83 197.58 137.52 194.40 134.80 Z" fill="#ebc36a" />
<path d="M 230.01 137.49 C 229.97 142.16 230.33 147.38 228.98 151.89 C 228.49 153.77 226.33 154.86 224.81 155.85 C 219.48 158.86 214.04 161.68 208.77 164.80 C 199.18 170.06 190.09 176.16 180.14 180.60 C 179.88 174.84 179.96 169.08 180.05 163.31 C 188.05 159.25 195.94 154.98 203.91 150.87 C 212.70 146.50 221.00 141.41 230.01 137.49 Z" fill="#9d6a3d" />
<path d="M 54.99 139.14 C 59.11 142.68 63.16 146.17 67.75 149.13 C 59.29 148.08 50.80 147.65 42.38 146.26 C 46.39 143.68 50.62 141.07 54.99 139.14 Z" fill="#9d6a3d" />
<path d="M 148.06 142.23 C 151.90 142.12 156.26 142.45 159.70 144.27 C 161.99 145.56 163.95 148.47 162.14 150.93 C 160.63 152.58 157.59 152.96 155.57 153.84 C 152.84 154.67 150.21 156.95 147.39 156.60 C 140.77 156.19 134.23 155.11 127.61 154.71 C 130.78 152.28 133.24 149.76 135.71 146.65 C 138.90 142.81 143.45 142.61 148.06 142.23 Z" fill="#ebc36a" />
<path d="M 92.16 143.31 C 93.46 146.10 94.69 148.93 96.06 151.69 C 89.34 151.13 82.64 150.46 75.93 149.75 C 81.57 148.04 86.85 145.83 92.16 143.31 Z" fill="#9d6a3d" />
<path d="M 189.96 142.80 C 192.51 143.08 194.98 144.93 197.17 146.21 C 190.29 149.99 183.43 153.85 176.50 157.52 C 172.86 159.62 169.45 158.76 165.50 158.49 C 168.72 154.65 172.57 151.58 176.28 148.25 C 180.09 144.89 184.76 142.51 189.96 142.80 Z" fill="#ebc36a" />
<path d="M 36.23 153.60 C 41.48 153.49 46.80 154.31 52.01 154.96 C 51.97 160.51 52.00 166.06 52.19 171.61 C 47.49 171.06 42.49 171.33 37.92 170.11 C 36.71 164.85 36.31 159.00 36.23 153.60 Z" fill="#c48e56" />
<path d="M 59.45 156.24 C 62.45 155.80 65.62 155.95 68.63 156.23 C 95.73 159.09 122.90 161.53 150.03 164.20 C 150.05 169.54 150.07 174.88 150.03 180.22 C 120.07 178.08 90.19 174.72 60.23 172.67 C 60.04 167.22 59.08 161.68 59.45 156.24 Z" fill="#9d6a3d" />
<path d="M 229.08 161.80 C 228.14 173.53 228.12 185.28 227.34 197.02 C 227.10 200.41 227.39 204.14 226.40 207.41 C 224.82 209.44 222.38 210.92 220.28 212.36 C 206.84 221.11 193.88 230.67 180.19 239.03 C 179.91 222.49 179.84 205.91 180.09 189.37 C 196.61 180.53 212.51 170.54 229.08 161.80 Z" fill="#9d6a3d" />
<path d="M 158.08 165.25 C 163.06 165.32 168.03 166.09 173.00 166.42 C 173.01 171.68 172.98 176.95 173.02 182.21 C 167.94 181.95 162.90 181.34 157.83 180.94 C 157.82 175.76 157.34 170.39 158.08 165.25 Z" fill="#c48e56" />
<path d="M 38.51 178.04 C 43.28 177.78 48.17 178.85 52.94 179.23 C 53.18 188.82 52.74 198.43 53.47 207.97 C 53.93 214.07 53.99 220.17 54.04 226.28 C 50.10 225.65 46.15 225.11 42.16 224.80 C 41.49 216.20 40.61 207.61 39.99 199.00 C 39.53 192.04 38.46 185.02 38.51 178.04 Z" fill="#c48e56" />
<path d="M 59.94 179.84 C 67.10 180.16 74.25 180.84 81.38 181.55 C 104.22 183.40 127.03 185.73 149.88 187.35 C 149.94 204.57 150.78 221.82 150.27 239.04 C 125.16 235.73 100.06 232.27 74.93 229.13 C 70.33 228.51 65.74 227.75 61.16 226.99 C 61.20 226.09 61.24 225.19 61.29 224.29 C 62.11 217.05 62.31 209.88 61.17 202.66 C 60.27 195.02 59.81 187.54 59.94 179.84 Z" fill="#9d6a3d" />
<path d="M 158.22 188.68 C 163.16 188.54 168.17 189.22 173.08 189.74 C 172.95 207.18 173.05 224.62 173.05 242.05 C 168.02 241.24 162.97 240.62 157.93 239.93 C 158.07 227.96 157.97 215.97 157.98 204.00 C 158.03 198.92 157.63 193.72 158.22 188.68 Z" fill="#c48e56" />
<path d="M 61.17 202.66 C 62.31 209.88 62.11 217.05 61.29 224.29 C 61.15 217.07 61.10 209.87 61.17 202.66 Z" fill="#c48e56" />
</svg>